<?xml version="1.0" standalone="no"?>
<!DOCTYPE svg PUBLIC "-//W3C//DTD SVG 20010904//EN"
 "http://www.w3.org/TR/2001/REC-SVG-20010904/DTD/svg10.dtd">
<svg version="1.0" xmlns="http://www.w3.org/2000/svg"
 width="500.000000pt" height="500.000000pt" viewBox="0 0 500.000000 500.000000"
 preserveAspectRatio="xMidYMid meet">
<metadata>
Created by potrace 1.16, written by Peter Selinger 2001-2019
</metadata>
<g transform="translate(0.000000,500.000000) scale(0.100000,-0.100000)"
fill="#000000" stroke="none">
<path d="M2245 3721 l-240 -138 -3 -126 -3 -126 -100 60 c-55 32 -105 59 -111
59 -12 0 -227 -118 -250 -138 -17 -14 -18 -53 -18 -561 0 -300 3 -555 6 -567
4 -14 147 -102 495 -303 l489 -283 93 52 c50 29 109 64 130 77 l37 23 0 125 0
124 103 -60 c65 -38 110 -57 120 -53 15 5 17 36 19 282 l3 276 83 48 c46 26
86 48 88 48 2 0 4 -51 4 -114 l0 -114 121 -71 c67 -39 132 -71 145 -71 l24 0
0 569 0 569 -124 71 c-68 39 -130 71 -139 71 -8 0 -53 -22 -100 -50 -47 -27
-88 -50 -91 -50 -3 0 -6 49 -6 108 0 73 -4 112 -12 121 -25 24 -484 281 -504
281 -11 0 -128 -62 -259 -139z m665 -162 c0 -3 -91 -57 -202 -120 l-203 -115
-202 116 c-122 70 -198 119 -193 124 5 5 96 59 202 121 l193 111 202 -116
c112 -63 203 -118 203 -121z m-622 -186 l182 -105 0 -238 0 -239 -89 52 -90
52 -3 135 -3 135 -112 65 -113 65 0 103 0 103 23 -12 c12 -7 104 -59 205 -116z
m-295 -112 l196 -115 -76 -43 c-41 -24 -80 -43 -85 -43 -15 0 -398 220 -398
228 0 8 152 92 161 89 3 -1 94 -53 202 -116z m1304 72 c85 -46 85 -46 60 -59
-14 -8 -106 -60 -204 -117 l-179 -104 -81 47 -82 46 197 116 c108 64 199 116
200 117 2 1 42 -20 89 -46z m123 -324 l0 -221 -42 25 c-24 13 -62 34 -85 47
l-43 24 0 127 0 127 78 45 c42 25 80 45 85 46 4 1 7 -98 7 -220z m-230 -17 l0
-108 -67 -39 c-38 -21 -78 -45 -91 -53 l-23 -15 3 113 3 113 85 48 c47 27 86
49 88 49 1 0 2 -49 2 -108z m-1274 51 l84 -48 0 -102 c0 -57 -3 -103 -7 -103
-5 1 -44 22 -88 49 l-80 48 -3 101 c-1 56 0 102 4 102 3 0 44 -21 90 -47z
m1002 -40 l32 -17 0 -509 0 -509 -32 20 c-18 11 -55 33 -83 49 l-50 29 -3 508
-2 508 52 -32 c29 -17 68 -38 86 -47z m-1022 -234 l104 -61 0 -93 0 -94 -185
107 c-102 58 -185 109 -185 112 0 6 140 87 153 89 5 1 55 -26 113 -60z m544
-36 c30 -18 60 -33 65 -33 6 0 55 27 110 59 l100 59 3 -221 c1 -121 1 -222 -1
-224 -3 -2 -99 52 -216 119 l-211 123 0 103 0 104 48 -28 c26 -15 72 -43 102
-61z m866 46 c42 -23 72 -45 67 -50 -8 -8 -284 -169 -334 -195 l-29 -15 0 93
0 93 98 57 c53 31 103 57 110 57 7 1 47 -18 88 -40z m114 -314 c0 -113 -2
-205 -5 -205 -3 0 -42 21 -85 46 l-80 46 0 114 0 113 78 45 c42 25 80 46 85
46 4 0 7 -92 7 -205z m-1087 -212 l147 -85 0 -104 c0 -57 -3 -104 -6 -104 -4
0 -152 84 -330 188 l-323 187 -1 107 0 107 183 -106 c100 -58 248 -144 330
-190z m131 186 c105 -62 193 -113 195 -115 6 -6 -22 -25 -92 -63 l-62 -33
-203 117 c-111 65 -201 119 -200 121 13 12 146 83 157 83 8 1 100 -49 205
-110z m-326 -363 l342 -199 0 -93 0 -93 -182 106 c-101 58 -292 168 -426 245
-134 77 -240 143 -237 147 12 11 150 89 156 88 3 -1 160 -91 347 -201z"/>
<path d="M1330 920 l0 -250 55 0 55 0 0 250 0 250 -55 0 -55 0 0 -250z"/>
<path d="M2250 920 l0 -250 50 0 50 0 0 53 c0 40 5 58 18 70 18 16 21 14 67
-53 l48 -70 112 0 112 0 15 53 15 52 80 3 80 3 14 -53 14 -53 58 -3 c31 -2 57
1 57 6 0 7 -103 304 -146 420 l-16 42 -62 0 -63 0 -79 -224 -78 -224 -68 90
-67 91 64 72 c36 40 65 75 65 79 0 3 -26 6 -57 6 l-58 0 -60 -69 -60 -69 -3
139 -3 139 -49 0 -50 0 0 -250z"/>
<path d="M920 904 l0 -236 118 4 c171 5 222 38 222 143 0 38 -5 52 -28 75
l-28 28 23 26 c34 40 32 106 -4 146 -33 36 -94 50 -219 50 l-84 0 0 -236z"/>
<path d="M1620 1029 c-74 -22 -110 -81 -110 -181 0 -114 61 -178 168 -178 68
0 113 19 143 61 21 30 24 45 24 121 0 72 -3 91 -21 115 -43 57 -130 84 -204
62z m90 -89 c50 -27 46 -159 -6 -182 -59 -27 -107 47 -84 132 14 54 48 72 90
50z"/>
<path d="M2023 1030 c-87 -20 -129 -90 -121 -201 8 -113 56 -159 165 -159 34
0 73 4 87 10 23 8 26 15 26 55 0 50 -2 51 -53 30 -49 -20 -64 -19 -92 10 -34
33 -35 110 -3 150 18 23 27 26 57 22 20 -3 44 -8 53 -12 13 -5 21 2 33 31 18
44 13 52 -41 65 -45 10 -67 10 -111 -1z"/>
<path d="M3215 1021 c-47 -25 -45 -25 -45 -6 0 11 -12 15 -45 15 l-45 0 0
-255 0 -255 56 0 56 0 -4 89 c-4 88 -4 89 16 75 11 -8 44 -14 72 -14 93 0 134
56 134 182 0 78 -23 143 -59 165 -39 24 -93 26 -136 4z m69 -90 c37 -40 28
-149 -14 -171 -23 -12 -65 2 -74 25 -13 35 -6 128 11 147 21 23 55 23 77 -1z"/>
<path d="M3637 1030 c-16 -5 -35 -14 -43 -20 -11 -10 -15 -9 -20 4 -4 11 -19
16 -50 16 l-44 0 0 -255 0 -255 56 0 55 0 -3 90 -3 89 22 -14 c34 -23 115 -19
147 6 44 34 59 76 60 159 0 82 -20 141 -58 165 -29 19 -85 26 -119 15z m47
-96 c36 -35 33 -136 -4 -166 -29 -23 -36 -23 -65 7 -20 19 -25 34 -25 77 0 32
6 62 16 76 18 26 56 29 78 6z"/>
<path d="M3937 1026 c-51 -19 -65 -33 -73 -70 -10 -58 13 -93 91 -134 85 -45
92 -67 20 -66 -27 0 -65 4 -82 8 l-33 9 0 -42 c0 -52 19 -61 124 -61 90 0 135
25 149 81 15 64 -10 103 -89 142 -38 17 -70 37 -72 44 -6 20 34 24 79 8 24 -8
46 -15 49 -15 10 0 32 69 26 79 -7 10 -95 31 -129 31 -12 -1 -39 -7 -60 -14z"/>
</g>
</svg>
