<svg width="25" height="24" viewBox="0 0 25 24" fill="none" xmlns="http://www.w3.org/2000/svg">
<path d="M17.1159 15.0509C17.1202 15.0575 17.1262 15.0609 17.1338 15.0592C17.1483 15.0617 17.1577 15.0709 17.1679 15.0809H17.1696C17.1816 15.0975 17.2071 15.0917 17.2182 15.1092H17.2173C17.2259 15.115 17.2352 15.1217 17.2446 15.1275C17.248 15.1342 17.2531 15.1367 17.2608 15.135C17.2761 15.1375 17.2863 15.1467 17.2957 15.1567H17.2974C17.3102 15.1734 17.3358 15.1667 17.3468 15.185L17.3451 15.1834C17.3545 15.19 17.3639 15.1959 17.3733 15.2025C17.3767 15.2092 17.3818 15.2117 17.3886 15.2092C17.4039 15.2109 17.415 15.2209 17.4244 15.2317C17.438 15.2467 17.4627 15.2409 17.4738 15.26L17.4721 15.2584C17.4832 15.2625 17.4908 15.2734 17.5011 15.2792L17.5045 15.2809C17.5147 15.2992 17.5394 15.2925 17.5513 15.3075C17.565 15.3217 17.5905 15.3167 17.6016 15.3359L17.5999 15.3342C17.6118 15.3384 17.6195 15.3484 17.6297 15.355L17.6323 15.3567C17.6433 15.3742 17.668 15.3675 17.68 15.3842C17.6945 15.3975 17.72 15.3925 17.7302 15.4125L17.7285 15.4109C17.7413 15.4142 17.7481 15.425 17.7584 15.4317H17.7609C17.772 15.45 17.7976 15.4434 17.8086 15.46C17.8172 15.4659 17.8257 15.4725 17.835 15.4775C17.8393 15.4842 17.8453 15.4875 17.8529 15.4859C17.8674 15.4884 17.8768 15.4975 17.887 15.5075H17.8887C17.9007 15.5242 17.9262 15.5184 17.9373 15.5359H17.9364C17.945 15.5417 17.9543 15.5484 17.9637 15.5542C17.9671 15.5609 17.9722 15.5634 17.9799 15.5617C17.9952 15.5642 18.0054 15.5734 18.0148 15.5834H18.0165C18.0293 15.6 18.0549 15.5934 18.0659 15.6117L18.0642 15.61C18.0736 15.6167 18.083 15.6225 18.0924 15.6292C18.0958 15.6359 18.1009 15.6384 18.1077 15.6359C18.123 15.6375 18.1341 15.6475 18.1435 15.6584C18.1571 15.6734 18.1818 15.6675 18.1929 15.6867L18.1912 15.685C18.2023 15.6892 18.2099 15.7 18.2202 15.7059L18.2236 15.7075C18.2338 15.7259 18.2585 15.7192 18.2704 15.7342C18.2841 15.7484 18.3096 15.7434 18.3207 15.7625L18.319 15.7609C18.3309 15.765 18.3386 15.775 18.3488 15.7817L18.3514 15.7834C18.3624 15.8009 18.3871 15.7942 18.3991 15.8109C18.4136 15.8242 18.4391 15.8192 18.4493 15.8392L18.4476 15.8375C18.4604 15.8409 18.4672 15.8517 18.4775 15.8584H18.48C18.4911 15.8767 18.5167 15.87 18.5277 15.8867C18.5363 15.8925 18.5448 15.8992 18.5541 15.9042C18.5584 15.9109 18.5644 15.9142 18.572 15.9125C18.5865 15.915 18.5959 15.9242 18.6061 15.9342H18.6078C18.6197 15.9509 18.6453 15.945 18.6564 15.9625H18.6555C18.6641 15.9684 18.6734 15.975 18.6828 15.9809C18.6862 15.9875 18.6913 15.99 18.699 15.9884C18.7143 15.9909 18.7245 16 18.7339 16.01H18.7356C18.7484 16.0267 18.774 16.02 18.785 16.0384L18.7833 16.0367C18.7927 16.0434 18.8021 16.0492 18.8114 16.0559C18.8149 16.0625 18.82 16.065 18.8268 16.0625C18.8421 16.0642 18.8532 16.0742 18.8626 16.085C18.8754 16.1009 18.9035 16.0934 18.9103 16.1167L18.9069 16.1134C18.9307 16.1192 18.9231 16.1475 18.9401 16.1584V16.16C18.9537 16.1784 18.9546 16.2 18.9623 16.22C18.9554 16.2309 18.9563 16.2417 18.9623 16.2525C18.9435 16.2767 18.9648 16.3142 18.9333 16.3334L18.9358 16.33C18.9316 16.3434 18.9222 16.3525 18.9094 16.3584L18.9111 16.3567C18.9043 16.3684 18.8958 16.3784 18.8822 16.3817L18.8847 16.3792C18.8753 16.4009 18.8489 16.395 18.8336 16.4075C18.8217 16.425 18.797 16.4192 18.7842 16.4342H18.7833C18.7714 16.4492 18.7467 16.4425 18.7365 16.4609L18.7331 16.4625C18.7228 16.4684 18.716 16.4792 18.7032 16.4825L18.7049 16.4809C18.6939 16.5009 18.6692 16.4959 18.6538 16.5084C18.6419 16.525 18.6172 16.5192 18.6044 16.535H18.6027C18.5933 16.5442 18.5865 16.555 18.572 16.5567L18.5746 16.5542C18.5644 16.5775 18.538 16.5717 18.5209 16.5834C18.4238 16.6175 18.3403 16.6775 18.2517 16.7267C16.3031 17.825 14.3537 18.9242 12.4069 20.0267C12.2919 20.0917 12.2015 20.0909 12.0874 20.0259C9.91049 18.7942 7.73189 17.5659 5.55415 16.3367C5.51752 16.3159 5.47832 16.2975 5.44509 16.2717C5.34797 16.1967 5.35393 16.0784 5.45617 16.0084C5.47747 15.9942 5.50048 15.9825 5.52263 15.9709C6.46325 15.465 7.40472 14.9609 8.34364 14.4517C8.45525 14.3909 8.54386 14.395 8.65292 14.4567C9.72901 15.0675 10.8077 15.675 11.8854 16.2834C11.9221 16.3042 11.9596 16.3242 11.9971 16.3459C12.1675 16.445 12.3336 16.4409 12.5057 16.3434C13.5937 15.7275 14.6852 15.1167 15.7706 14.4967C15.9189 14.4117 16.0322 14.4 16.1779 14.4984C16.3994 14.6467 16.6363 14.7742 16.8672 14.9109C16.8961 14.9284 16.9225 14.9509 16.9575 14.9567C16.972 14.9709 16.9984 14.965 17.0086 14.9859L17.0069 14.9842C17.0197 14.9875 17.0265 14.9984 17.0367 15.005H17.0393C17.0503 15.0234 17.0759 15.0167 17.087 15.0334C17.0955 15.0392 17.104 15.0459 17.1134 15.0509H17.1159Z" fill="#4A60AC"/>
<path d="M17.9144 14.5842C17.911 14.5767 17.905 14.5742 17.8965 14.5759C17.882 14.5726 17.8718 14.5634 17.8616 14.5542C17.8488 14.5376 17.8232 14.5434 17.8122 14.5251L17.8139 14.5267C17.8045 14.5201 17.7951 14.5134 17.7857 14.5076C17.7823 14.5001 17.7772 14.4976 17.7696 14.5001C17.7542 14.4976 17.744 14.4884 17.7338 14.4784C17.721 14.4626 17.6946 14.4684 17.6844 14.4492L17.6869 14.4509C17.6767 14.4451 17.6673 14.4384 17.6579 14.4317C17.6554 14.4251 17.6503 14.4226 17.6426 14.4242C17.6264 14.4226 17.6162 14.4126 17.606 14.4017C17.5923 14.3867 17.5659 14.3926 17.5557 14.3726C17.3674 14.2417 17.1646 14.1359 16.9695 14.0167C16.8358 13.9351 16.702 13.8517 16.564 13.7776C16.4617 13.7226 16.4242 13.6476 16.4242 13.5342C16.4276 12.3101 16.4259 11.0851 16.4259 9.86091C16.4259 9.79841 16.431 9.73674 16.4063 9.67591C16.362 9.56507 16.2854 9.48924 16.1806 9.43091C15.2331 8.89841 14.2865 8.36341 13.3399 7.82924C13.259 7.78341 13.1823 7.72924 13.0937 7.69841C13.0801 7.69507 13.0699 7.68591 13.0588 7.67757H13.0571C13.046 7.65924 13.0204 7.66507 13.0085 7.65007C12.994 7.63591 12.9685 7.64091 12.9574 7.62174L12.96 7.62341C12.9497 7.61757 12.9404 7.61091 12.931 7.60424C12.9276 7.59674 12.9225 7.59507 12.9148 7.59674C12.9003 7.59424 12.8901 7.58507 12.879 7.57591C12.8671 7.55924 12.8415 7.56507 12.8296 7.54841H12.8313C12.8228 7.54257 12.8143 7.53591 12.804 7.53091C12.7998 7.52341 12.793 7.52091 12.7844 7.52257C12.7717 7.51841 12.7623 7.50924 12.7512 7.50174H12.7495C12.7316 7.48591 12.7146 7.46924 12.6992 7.45174V7.45007C12.689 7.43841 12.6788 7.42757 12.6779 7.41174C12.6762 7.39924 12.6745 7.38591 12.672 7.37341C12.6558 7.34174 12.6617 7.30757 12.6617 7.27507C12.6617 6.24507 12.6617 5.21424 12.6617 4.18424C12.6617 4.15174 12.6549 4.11757 12.672 4.08591C12.6779 4.07924 12.6788 4.07257 12.6754 4.06424C12.6882 4.04841 12.6839 4.02424 12.7018 4.01091H12.7009C12.7078 4.00174 12.7171 3.99424 12.7256 3.98507C12.735 3.97674 12.7427 3.96674 12.7546 3.96174L12.7521 3.96341C12.8117 3.93924 12.8705 3.94091 12.9301 3.96257H12.9284C12.9369 3.96841 12.9463 3.97424 12.9557 3.97924C12.96 3.98674 12.9668 3.98924 12.9753 3.98757C12.9881 3.99091 12.9974 4.00007 13.0077 4.00757C13.0102 4.01424 13.0145 4.01674 13.0221 4.01424C13.0383 4.01507 13.0494 4.02507 13.0596 4.03591C13.0724 4.05174 13.098 4.04591 13.1099 4.06424L13.1082 4.06257C13.1176 4.06924 13.1269 4.07507 13.1363 4.08091C13.1406 4.08841 13.1465 4.09091 13.1542 4.08841C13.1678 4.09174 13.1781 4.10091 13.1891 4.10924H13.1908C13.2019 4.12757 13.2266 4.12174 13.2394 4.13674C13.253 4.15091 13.2786 4.14591 13.2905 4.16424L13.288 4.16257C13.2973 4.16841 13.3076 4.17507 13.3169 4.18174C13.3204 4.18924 13.3263 4.19174 13.334 4.18924C13.3485 4.19174 13.3587 4.20174 13.3689 4.21007H13.3698C13.3817 4.22757 13.4064 4.22174 13.4192 4.23757H13.4183C13.426 4.24424 13.4354 4.25007 13.4447 4.25507C13.4499 4.26257 13.4558 4.26507 13.4652 4.26341C13.4771 4.26757 13.4865 4.27591 13.4967 4.28257C13.5001 4.28924 13.5052 4.29174 13.5121 4.28924C13.5274 4.29091 13.5376 4.30091 13.5487 4.31091C13.5615 4.32674 13.5862 4.32174 13.599 4.33841H13.5973C13.6058 4.34424 13.6151 4.35007 13.6245 4.35591C13.6288 4.36341 13.6356 4.36591 13.6433 4.36424C13.656 4.36841 13.6654 4.37674 13.6756 4.38424C13.6773 4.39091 13.6825 4.39341 13.6893 4.39091C13.7063 4.39091 13.7174 4.40174 13.7276 4.41257C13.7412 4.42757 13.7668 4.42257 13.7779 4.44091L13.7762 4.43924C13.7856 4.44591 13.7949 4.45174 13.8043 4.45757C13.8086 4.46507 13.8145 4.46757 13.8222 4.46507C13.8358 4.46841 13.846 4.47757 13.8571 4.48591H13.8588C13.8699 4.50424 13.8955 4.49841 13.9074 4.51341C13.921 4.52757 13.9466 4.52257 13.9585 4.54174L13.956 4.54007C13.9662 4.54591 13.9755 4.55257 13.9849 4.55924C13.9883 4.56674 13.9934 4.56924 14.0011 4.56674C14.0156 4.56924 14.0258 4.57841 14.0369 4.58757H14.0377C14.0497 4.60424 14.0752 4.59924 14.0872 4.61507H14.0855C14.094 4.62174 14.1025 4.62757 14.1127 4.63257C14.1178 4.64007 14.1247 4.64257 14.1332 4.64091C14.1451 4.64507 14.1545 4.65341 14.1647 4.66091C14.1673 4.66757 14.1724 4.67007 14.18 4.66757C14.1954 4.66924 14.2064 4.67924 14.2167 4.68924C14.2294 4.70507 14.255 4.70007 14.2669 4.71757H14.2652C14.2738 4.72341 14.2831 4.72924 14.2925 4.73507C14.2968 4.74257 14.3027 4.74507 14.3112 4.74341C14.324 4.74674 14.3342 4.75507 14.3445 4.76341C14.347 4.77007 14.3513 4.77257 14.3581 4.76924C14.3751 4.76924 14.3862 4.78007 14.3964 4.79091C14.4101 4.80591 14.4356 4.80007 14.4467 4.81841L14.4442 4.81674C14.4535 4.82341 14.4629 4.82924 14.4723 4.83507C14.4757 4.84257 14.4816 4.84507 14.4902 4.84257C14.5046 4.84591 14.514 4.85507 14.5251 4.86341H14.5268C14.5387 4.88091 14.5634 4.87507 14.5762 4.89091C14.5907 4.90507 14.6163 4.89924 14.6273 4.91924L14.6248 4.91757C14.635 4.92341 14.6444 4.93007 14.6538 4.93674C14.6572 4.94341 14.6623 4.94591 14.6699 4.94341C14.6844 4.94591 14.6955 4.95507 14.7057 4.96424C14.7185 4.98091 14.7432 4.97507 14.7551 4.99174H14.7534C14.762 4.99757 14.7705 5.00424 14.7807 5.00924C14.785 5.01674 14.7918 5.01924 14.8003 5.01757C14.8131 5.02091 14.8224 5.03007 14.8327 5.03757C14.8352 5.04424 14.8403 5.04674 14.8472 5.04424C14.8633 5.04507 14.8744 5.05507 14.8846 5.06591C14.8974 5.08174 14.923 5.07591 14.9349 5.09424L14.9332 5.09257C14.9426 5.09924 14.9511 5.10507 14.9613 5.11091C14.9656 5.11841 14.9716 5.12091 14.9801 5.11841C14.9937 5.12174 15.0031 5.13174 15.0142 5.13924H15.0159C15.0269 5.15757 15.0516 5.15174 15.0644 5.16674C15.0781 5.18174 15.1036 5.17591 15.1147 5.19507L15.1121 5.19341C15.1215 5.19924 15.1317 5.20591 15.1411 5.21174C15.1445 5.21924 15.1505 5.22174 15.1581 5.21924C15.1726 5.22174 15.1828 5.23174 15.1931 5.24007H15.1939C15.2059 5.25757 15.2306 5.25174 15.2433 5.26757H15.2425C15.2502 5.27424 15.2595 5.28007 15.2689 5.28507C15.274 5.29257 15.2808 5.29507 15.2893 5.29341C15.3013 5.29757 15.3098 5.30674 15.32 5.31257C15.3234 5.31924 15.3285 5.32174 15.3354 5.32007C15.3507 5.32174 15.3609 5.33174 15.372 5.34091C15.3848 5.35757 15.4095 5.35174 15.4214 5.36841H15.4197C15.4282 5.37424 15.4376 5.38007 15.447 5.38591C15.4512 5.39341 15.458 5.39591 15.4666 5.39424C15.4793 5.39757 15.4887 5.40674 15.4989 5.41424C15.5015 5.42091 15.5058 5.42341 15.5134 5.42091C15.5296 5.42174 15.5407 5.43174 15.5509 5.44257C15.5646 5.45757 15.5893 5.45257 15.6012 5.47007L15.5995 5.46841C15.6089 5.47507 15.6182 5.48091 15.6276 5.48674C15.6319 5.49424 15.6378 5.49674 15.6455 5.49424C15.6591 5.49757 15.6693 5.50674 15.6804 5.51507H15.6821C15.6932 5.53341 15.7179 5.52757 15.7307 5.54257C15.7443 5.55674 15.7699 5.55174 15.7818 5.57091L15.7793 5.56924C15.7886 5.57507 15.7989 5.58174 15.8082 5.58841C15.8116 5.59591 15.8176 5.59841 15.8253 5.59591C15.8398 5.59841 15.85 5.60841 15.8602 5.61674H15.8611C15.873 5.63424 15.8977 5.62841 15.9105 5.64424H15.9096C15.9173 5.65091 15.9267 5.65674 15.936 5.66174C15.9411 5.66924 15.9471 5.67174 15.9565 5.67007C15.9684 5.67424 15.9778 5.68257 15.988 5.68924C15.9906 5.69591 15.9957 5.69841 16.0033 5.69591C16.0187 5.69757 16.0297 5.70757 16.04 5.71757C16.0528 5.73341 16.0783 5.72841 16.0902 5.74507H16.0885C16.0971 5.75091 16.1064 5.75674 16.1158 5.76257C16.1201 5.77007 16.1269 5.77257 16.1345 5.77091C16.1473 5.77507 16.1567 5.78341 16.1669 5.79091C16.1686 5.79757 16.1737 5.80007 16.1806 5.79757C16.1976 5.79757 16.2087 5.80841 16.2189 5.81924C16.2325 5.83424 16.2581 5.82924 16.2692 5.84757L16.2666 5.84591C16.276 5.85257 16.2854 5.85841 16.2947 5.86424C16.2981 5.87174 16.3041 5.87424 16.3126 5.87174C16.3262 5.87507 16.3365 5.88424 16.3475 5.89257H16.3493C16.3603 5.91091 16.3859 5.90507 16.3978 5.92007C16.4123 5.93424 16.4379 5.92924 16.4489 5.94841L16.4464 5.94674C16.4566 5.95257 16.466 5.95924 16.4753 5.96591C16.4788 5.97341 16.4839 5.97591 16.4915 5.97341C16.506 5.97591 16.5162 5.98507 16.5273 5.99424C16.5393 6.01091 16.5648 6.00507 16.5767 6.02174H16.575C16.5836 6.02757 16.5921 6.03424 16.6023 6.03924C16.6066 6.04674 16.6134 6.04924 16.6219 6.04757C16.6338 6.05174 16.6432 6.06007 16.6534 6.06757C16.656 6.07424 16.6611 6.07674 16.6688 6.07424C16.6841 6.07591 16.6952 6.08591 16.7054 6.09591C16.7182 6.11174 16.7437 6.10674 16.7557 6.12341H16.754C16.7625 6.12924 16.7719 6.13507 16.7812 6.14091C16.7855 6.14841 16.7914 6.15091 16.8 6.14924C16.8127 6.15257 16.823 6.16091 16.8332 6.16924C16.8349 6.17591 16.8392 6.17841 16.846 6.17507C16.863 6.17507 16.8741 6.18591 16.8843 6.19674C16.8979 6.21174 16.9235 6.20591 16.9346 6.22507L16.932 6.22341C16.9414 6.23007 16.9508 6.23591 16.961 6.24257C16.9644 6.25007 16.9704 6.25257 16.9789 6.25007C16.9934 6.25341 17.0027 6.26257 17.0138 6.27091H17.0155C17.0275 6.28841 17.0522 6.28257 17.0649 6.29841C17.0794 6.31257 17.105 6.30674 17.1161 6.32674L17.1135 6.32507C17.1237 6.33091 17.1331 6.33757 17.1425 6.34424C17.1459 6.35091 17.151 6.35341 17.1587 6.35174C17.174 6.35424 17.1842 6.36341 17.1944 6.37257C17.2072 6.38924 17.2319 6.38341 17.2439 6.40007H17.2422C17.2507 6.40591 17.2592 6.41257 17.2694 6.41757C17.2737 6.42507 17.2805 6.42757 17.289 6.42591C17.3018 6.42924 17.3112 6.43841 17.3214 6.44591C17.324 6.45257 17.3291 6.45507 17.3359 6.45257C17.3521 6.45341 17.3631 6.46341 17.3734 6.47424C17.3862 6.49007 17.4117 6.48424 17.4236 6.50257L17.4219 6.50091C17.4313 6.50757 17.4407 6.51341 17.4501 6.51924C17.4543 6.52674 17.4603 6.52924 17.4688 6.52674C17.4824 6.53007 17.4918 6.54007 17.5029 6.54757H17.5046C17.5157 6.56591 17.5404 6.56007 17.5531 6.57507C17.5668 6.58924 17.5923 6.58424 17.6043 6.60341L17.6017 6.60174C17.6111 6.60757 17.6213 6.61424 17.6307 6.62007C17.6341 6.62757 17.64 6.63007 17.6477 6.62757C17.6622 6.63007 17.6724 6.64007 17.6826 6.64841H17.6835C17.6954 6.66591 17.7201 6.66007 17.7329 6.67591H17.7321C17.7397 6.68257 17.7491 6.68841 17.7585 6.69341C17.7636 6.70091 17.7704 6.70341 17.7789 6.70174C17.7909 6.70591 17.7994 6.71424 17.8105 6.72091C17.8139 6.72757 17.819 6.73007 17.8258 6.72757C17.8411 6.72924 17.8513 6.73924 17.8624 6.74841C17.8752 6.76507 17.8999 6.75924 17.9118 6.77591H17.9101C17.9187 6.78174 17.928 6.78757 17.9374 6.79341C17.9417 6.80091 17.9485 6.80341 17.957 6.80174C17.9698 6.80507 17.9792 6.81424 17.9894 6.82174C17.9919 6.82841 17.9962 6.83091 18.0039 6.82841C18.02 6.82924 18.0311 6.83924 18.0413 6.85007C18.055 6.86507 18.0797 6.86007 18.0916 6.87757L18.0899 6.87591C18.0993 6.88257 18.1087 6.88841 18.118 6.89424C18.1223 6.90174 18.1283 6.90424 18.1359 6.90174C18.1496 6.90507 18.1598 6.91424 18.1709 6.92257H18.1726C18.1836 6.94091 18.2083 6.93507 18.2211 6.95007C18.2348 6.96424 18.2603 6.95924 18.2722 6.97841L18.2697 6.97674C18.2799 6.98257 18.2893 6.98924 18.2987 6.99507C18.3021 7.00257 18.308 7.00507 18.3157 7.00257C18.3302 7.00507 18.3404 7.01507 18.3506 7.02341H18.3515C18.3634 7.04007 18.389 7.03507 18.4009 7.05091H18.4C18.4086 7.05757 18.4171 7.06341 18.4265 7.06841C18.4316 7.07591 18.4384 7.07841 18.4469 7.07674C18.4588 7.08091 18.4682 7.08924 18.4784 7.09591C18.481 7.10257 18.4861 7.10507 18.4938 7.10257C18.5091 7.10424 18.5202 7.11424 18.5304 7.12424C18.5432 7.14007 18.5687 7.13507 18.5807 7.15257H18.579C18.5875 7.15841 18.5969 7.16424 18.6062 7.17007C18.6105 7.17757 18.6165 7.18007 18.625 7.17841C18.6378 7.18257 18.6471 7.19091 18.6574 7.19841C18.6599 7.20507 18.6642 7.20757 18.671 7.20424C18.688 7.20424 18.6991 7.21507 18.7093 7.22591C18.723 7.24091 18.7485 7.23591 18.7596 7.25424L18.757 7.25257C18.7664 7.25924 18.7758 7.26507 18.7852 7.27091C18.7886 7.27841 18.7945 7.28091 18.803 7.27841C18.8167 7.28174 18.8269 7.29091 18.838 7.29924H18.8397C18.8508 7.31757 18.8763 7.31091 18.8882 7.32674C18.9027 7.34091 18.9283 7.33507 18.9394 7.35507L18.9368 7.35341C18.947 7.35924 18.9564 7.36591 18.9658 7.37257C18.9692 7.38007 18.9743 7.38174 18.982 7.38007C18.9965 7.38257 19.0067 7.39174 19.0178 7.40091C19.0297 7.41757 19.0552 7.41174 19.0672 7.42841H19.0655C19.074 7.43424 19.0825 7.44091 19.0927 7.44591C19.097 7.45341 19.1038 7.45591 19.1123 7.45424C19.1243 7.45841 19.1336 7.46674 19.1439 7.47424C19.1464 7.48091 19.1515 7.48341 19.1592 7.48091C19.1754 7.48257 19.1856 7.49257 19.1958 7.50257C19.2086 7.51841 19.2342 7.51257 19.2461 7.53007H19.2444C19.2529 7.53591 19.2623 7.54174 19.2725 7.54757C19.2768 7.55507 19.2827 7.55757 19.2912 7.55591C19.304 7.55924 19.3143 7.56757 19.3245 7.57591C19.3262 7.58257 19.3304 7.58507 19.3373 7.58174C19.3543 7.58174 19.3654 7.59257 19.3756 7.60341C19.3892 7.61841 19.4148 7.61257 19.4259 7.63174L19.4233 7.63007C19.4327 7.63591 19.4429 7.64257 19.4523 7.64841C19.4557 7.65591 19.4617 7.65841 19.4702 7.65591C19.4847 7.65924 19.494 7.66841 19.5051 7.67674H19.506C19.5179 7.69424 19.5426 7.68841 19.5554 7.70507H19.5545C19.563 7.71174 19.5733 7.71924 19.5826 7.72507L19.586 7.72757C19.5912 7.73757 19.5988 7.74507 19.6082 7.75007L19.6099 7.75257C19.615 7.76341 19.6261 7.77091 19.6303 7.78257L19.6286 7.78007C19.6585 7.81757 19.644 7.86091 19.644 7.90091C19.644 10.3551 19.644 12.8084 19.644 15.2626C19.644 15.3034 19.6551 15.3467 19.6321 15.3851C19.6167 15.3976 19.6227 15.4242 19.6014 15.4334L19.6048 15.4301C19.5988 15.4451 19.5877 15.4534 19.5724 15.4576C19.5647 15.4551 19.5588 15.4576 19.5545 15.4651C19.5434 15.4717 19.5332 15.4817 19.5187 15.4826C19.4906 15.4826 19.4625 15.4826 19.4344 15.4826C19.4156 15.4726 19.3918 15.4759 19.3764 15.4576H19.3782C19.3696 15.4517 19.3603 15.4459 19.3509 15.4401C19.3475 15.4326 19.3415 15.4301 19.333 15.4317C19.3185 15.4284 19.3083 15.4192 19.2981 15.4101C19.2853 15.3934 19.2597 15.3992 19.2486 15.3809L19.2504 15.3826C19.241 15.3759 19.2316 15.3692 19.2222 15.3634C19.2188 15.3559 19.2137 15.3534 19.206 15.3559C19.1907 15.3534 19.1805 15.3442 19.1703 15.3342C19.1575 15.3184 19.1311 15.3242 19.1208 15.3051L19.1234 15.3067C19.1132 15.3009 19.1038 15.2942 19.0944 15.2876C19.0919 15.2809 19.0868 15.2784 19.0791 15.2801C19.0629 15.2784 19.0527 15.2684 19.0425 15.2576C19.0288 15.2426 19.0033 15.2484 18.9922 15.2284L18.9947 15.2301C18.9828 15.2267 18.9752 15.2167 18.9649 15.2101L18.9598 15.2034H18.9513C18.9343 15.2034 18.9232 15.1926 18.913 15.1809C18.9053 15.1742 18.8968 15.1676 18.8865 15.1634C18.8823 15.1559 18.8755 15.1526 18.8669 15.1542C18.8542 15.1501 18.8439 15.1409 18.8337 15.1334H18.832C18.8209 15.1151 18.7954 15.1209 18.7835 15.1042H18.7852C18.7766 15.0984 18.7681 15.0917 18.7579 15.0867C18.7536 15.0792 18.7477 15.0767 18.7391 15.0784C18.7255 15.0751 18.7153 15.0651 18.7051 15.0576H18.7042C18.6923 15.0401 18.6667 15.0459 18.6556 15.0284H18.6574C18.6488 15.0226 18.6395 15.0167 18.6301 15.0109C18.6267 15.0034 18.6207 15.0009 18.6122 15.0026C18.5977 14.9992 18.5875 14.9901 18.5773 14.9809C18.5645 14.9642 18.5389 14.9701 18.5278 14.9517L18.5295 14.9534C18.5202 14.9467 18.5108 14.9401 18.5014 14.9342C18.498 14.9267 18.4929 14.9242 18.4852 14.9267C18.4699 14.9242 18.4597 14.9151 18.4495 14.9051C18.4367 14.8892 18.4103 14.8951 18.4 14.8759L18.4026 14.8776C18.3924 14.8717 18.383 14.8651 18.3736 14.8584C18.3711 14.8517 18.366 14.8492 18.3583 14.8509C18.3421 14.8492 18.3319 14.8392 18.3217 14.8284C18.308 14.8134 18.2825 14.8192 18.2714 14.7992L18.2739 14.8009C18.262 14.7976 18.2544 14.7876 18.2441 14.7809L18.239 14.7742H18.2305C18.2135 14.7742 18.2024 14.7634 18.1922 14.7517C18.1845 14.7451 18.176 14.7384 18.1657 14.7342C18.1615 14.7267 18.1547 14.7234 18.1461 14.7251C18.1334 14.7209 18.1231 14.7117 18.1129 14.7042H18.1112C18.1001 14.6859 18.0746 14.6917 18.0626 14.6751H18.0644C18.0558 14.6692 18.0473 14.6626 18.0371 14.6576C18.0328 14.6501 18.0269 14.6476 18.0183 14.6492C18.0047 14.6459 17.9945 14.6359 17.9843 14.6284H17.9834C17.9715 14.6109 17.9459 14.6167 17.9348 14.5992H17.9366C17.928 14.5934 17.9187 14.5876 17.9093 14.5817L17.9144 14.5842Z" fill="#EF3D23"/>
<path d="M10.0496 8.40081C10.0095 8.40581 9.98056 8.43164 9.94733 8.45081C9.41397 8.75081 8.88317 9.05497 8.34726 9.35164C8.1547 9.45831 8.0695 9.60831 8.07035 9.82164C8.07291 11.0216 8.0695 12.2225 8.07461 13.4225C8.07461 13.5641 8.0252 13.6416 7.89995 13.7083C6.99171 14.1908 6.08346 14.6758 5.18203 15.1708C4.98522 15.2791 4.85571 15.2058 4.85571 14.9866C4.86253 12.615 4.86082 10.2441 4.85742 7.87247C4.85742 7.74247 4.90087 7.66747 5.01589 7.60331C7.03857 6.46581 9.05954 5.32497 11.0814 4.18414C11.118 4.16331 11.1597 4.14997 11.187 4.11664C11.1964 4.09581 11.2219 4.10081 11.2364 4.08831C11.2475 4.07164 11.2722 4.07747 11.285 4.06164H11.2875C11.2978 4.05081 11.308 4.04081 11.3233 4.03997C11.331 4.04331 11.3361 4.03997 11.3387 4.03247C11.348 4.02581 11.3574 4.01914 11.3676 4.01414H11.3668C11.377 3.99581 11.4026 4.00081 11.4162 3.98747C11.4281 3.97081 11.452 3.97664 11.4648 3.96164H11.4673C11.5184 3.94247 11.5687 3.94247 11.619 3.96164H11.6215C11.6326 3.97831 11.6616 3.97081 11.6658 3.99497L11.6633 3.99247C11.6888 3.99831 11.6812 4.02581 11.6957 4.03831C11.7204 4.07664 11.7084 4.11997 11.7084 4.16081C11.7084 5.21747 11.7084 6.27331 11.7084 7.32997C11.7084 7.36997 11.7246 7.41414 11.6914 7.44997L11.6931 7.44664C11.6905 7.45997 11.6795 7.46747 11.671 7.47581H11.6701C11.6624 7.48497 11.6539 7.49331 11.6445 7.49997C11.6369 7.50997 11.6292 7.52081 11.6139 7.52081L11.619 7.52497L11.6139 7.51997C11.6062 7.54414 11.5806 7.53747 11.5645 7.54831C11.5542 7.56831 11.5295 7.56247 11.515 7.57581H11.5142C11.5031 7.59247 11.4784 7.58581 11.4673 7.60247L11.4639 7.60414C11.4545 7.61164 11.4477 7.62247 11.4341 7.62247C11.4256 7.64497 11.4 7.63831 11.3847 7.64997C11.3736 7.66831 11.3489 7.66247 11.3353 7.67664H11.3336C11.3225 7.69331 11.2978 7.68581 11.2875 7.70331L11.2833 7.70497C11.2748 7.71331 11.2645 7.71914 11.2535 7.72331C11.2449 7.74414 11.2185 7.73831 11.204 7.75081C11.193 7.76831 11.1683 7.76247 11.1555 7.77747H11.1529C11.1274 7.79581 11.1027 7.81414 11.0737 7.82414C11.0635 7.84414 11.0388 7.83831 11.0243 7.85164C11.0132 7.86914 10.9885 7.86247 10.9766 7.87831L10.974 7.87997C10.9646 7.88747 10.9587 7.89914 10.9433 7.89831L10.9493 7.90247L10.9442 7.89747C10.9365 7.92164 10.911 7.91497 10.8956 7.92581C10.8854 7.94497 10.8598 7.93914 10.8462 7.95247H10.8454C10.8334 7.96914 10.8096 7.96247 10.7985 7.97914L10.7951 7.98081C10.7866 7.98914 10.7763 7.99581 10.7653 7.99914C10.7567 8.02081 10.7312 8.01497 10.7158 8.02664C10.7048 8.04497 10.6801 8.03914 10.6673 8.05331H10.6656C10.6409 8.07164 10.6162 8.09081 10.5855 8.09997C10.5761 8.12081 10.5506 8.11497 10.5361 8.12747C10.525 8.14497 10.5003 8.13914 10.4875 8.15414H10.485C10.4764 8.16331 10.4696 8.17581 10.4543 8.17331L10.4611 8.17747L10.4551 8.17247C10.4483 8.19747 10.4219 8.19081 10.4057 8.20081C10.3955 8.22081 10.3708 8.21497 10.3563 8.22831C10.3452 8.24497 10.3205 8.23914 10.3086 8.25497L10.3052 8.25664C10.2958 8.26414 10.289 8.27581 10.2745 8.27497L10.2796 8.27914L10.2754 8.27414C10.2677 8.29747 10.2413 8.29164 10.2259 8.30247C10.2157 8.32164 10.1902 8.31581 10.1765 8.32914H10.1757C10.1646 8.34581 10.1399 8.33914 10.1288 8.35581L10.1246 8.35747C10.116 8.36581 10.1058 8.37164 10.0947 8.37581H10.0956C10.0862 8.39831 10.0598 8.39164 10.0445 8.40331L10.0496 8.40081Z" fill="#252D6A"/>
</svg>
