<svg width="342" height="184" viewBox="0 0 342 184" fill="none" xmlns="http://www.w3.org/2000/svg">
<g clip-path="url(#clip0_247_182)">
<path d="M247.683 99.9181C241.457 99.9181 231.055 96.6144 223.127 77.4587C222.544 76.0485 223.211 74.4326 224.614 73.845C226.02 73.2574 227.631 73.9299 228.214 75.3368C233.808 88.8581 241.684 95.72 249.814 94.1922C257.912 92.6612 264.662 83.3608 264.864 73.4631C264.893 71.9581 266.123 70.7568 267.617 70.7568H267.676C269.199 70.7862 270.406 72.0496 270.374 73.5773C270.12 86.1585 261.538 97.6003 250.836 99.6275C249.984 99.7875 248.913 99.9181 247.679 99.9181H247.683Z" fill="#133441"/>
<path d="M268.232 78.4346C267.562 78.4346 266.901 78.3367 266.27 78.1343C264.72 77.6381 261.157 75.7741 261.528 69.1669C261.827 63.8458 261.147 61.7697 261.062 61.5346C260.239 59.8208 260.89 57.7381 262.572 56.811C264.314 55.8545 266.497 56.4911 267.454 58.2375C267.754 58.7827 268.532 60.5683 268.74 64.5673C270.032 64.3975 271.148 64.391 272.128 64.5477C274.321 64.897 275.496 66.0167 276.095 66.8916C277.413 68.8241 277.283 71.354 275.734 73.835C274.761 75.3954 273.378 76.6979 271.841 77.5042C270.663 78.1245 269.427 78.4379 268.232 78.4379V78.4346ZM261.147 61.6978C261.147 61.6978 261.15 61.7044 261.153 61.7076C261.153 61.7044 261.15 61.7011 261.147 61.6978ZM261.144 61.6913C261.144 61.6913 261.144 61.6913 261.144 61.6946C261.144 61.6946 261.144 61.6946 261.144 61.6913Z" fill="#133441"/>
<path d="M205.311 183.749C205.23 183.749 205.148 183.749 205.067 183.742C198.981 183.334 195.86 181.003 195.524 180.736C194.528 179.952 194.017 178.699 194.18 177.438L199.664 135.037C199.918 133.062 201.718 131.678 203.69 131.926C205.659 132.184 207.046 133.992 206.792 135.964L201.637 175.819C202.548 176.123 203.843 176.43 205.545 176.544C207.524 176.678 209.024 178.395 208.891 180.383C208.764 182.286 207.186 183.745 205.308 183.745L205.311 183.749Z" fill="#133441"/>
<path d="M109.892 184C108.194 184 106.683 182.782 106.361 181.049C106.003 179.09 107.292 177.21 109.242 176.847C111.217 176.482 114.397 175.705 115.93 175.003C118.052 171.712 124.789 153.712 130.302 137.563C130.946 135.68 132.987 134.668 134.865 135.321C136.743 135.967 137.742 138.017 137.101 139.897C123.835 178.751 121.225 180.278 119.972 181.01C117.163 182.655 111.627 183.735 110.547 183.935C110.325 183.974 110.107 183.993 109.892 183.993V184Z" fill="#133441"/>
<path d="M217.06 117.719C217.106 117.79 217.164 117.823 217.246 117.807C217.395 117.833 217.493 117.931 217.597 118.035H217.613C217.737 118.212 218.001 118.15 218.115 118.336H218.105C218.193 118.398 218.29 118.469 218.388 118.532C218.424 118.603 218.476 118.629 218.554 118.61C218.714 118.636 218.818 118.734 218.915 118.838H218.932C219.065 119.015 219.329 118.943 219.443 119.139L219.426 119.122C219.524 119.194 219.622 119.256 219.716 119.325C219.752 119.397 219.804 119.423 219.875 119.397C220.035 119.413 220.149 119.521 220.246 119.635C220.386 119.795 220.643 119.733 220.757 119.935L220.741 119.919C220.855 119.965 220.936 120.079 221.041 120.141L221.076 120.157C221.181 120.353 221.438 120.281 221.561 120.441C221.701 120.591 221.965 120.539 222.082 120.742L222.066 120.725C222.189 120.771 222.268 120.875 222.375 120.947L222.401 120.964C222.515 121.15 222.772 121.078 222.896 121.254C223.045 121.394 223.309 121.342 223.416 121.554L223.4 121.538C223.534 121.574 223.602 121.688 223.709 121.76H223.735C223.849 121.956 224.113 121.884 224.23 122.06C224.318 122.122 224.406 122.194 224.503 122.246C224.549 122.318 224.608 122.351 224.689 122.335C224.839 122.361 224.936 122.459 225.04 122.563H225.057C225.18 122.739 225.444 122.677 225.558 122.863H225.548C225.636 122.925 225.734 122.997 225.831 123.059C225.867 123.131 225.919 123.157 225.997 123.138C226.157 123.164 226.261 123.262 226.359 123.366H226.375C226.508 123.542 226.772 123.471 226.886 123.666L226.87 123.65C226.967 123.722 227.065 123.784 227.159 123.853C227.195 123.924 227.247 123.95 227.319 123.924C227.478 123.941 227.592 124.048 227.69 124.163C227.83 124.323 228.087 124.261 228.201 124.463L228.184 124.447C228.298 124.492 228.38 124.607 228.484 124.669L228.52 124.685C228.624 124.881 228.881 124.809 229.005 124.969C229.145 125.119 229.408 125.067 229.525 125.269L229.509 125.253C229.633 125.299 229.711 125.403 229.818 125.475L229.844 125.491C229.958 125.677 230.215 125.606 230.339 125.782C230.489 125.922 230.752 125.87 230.86 126.082L230.843 126.066C230.977 126.102 231.045 126.216 231.153 126.288H231.179C231.293 126.484 231.556 126.412 231.673 126.588C231.761 126.65 231.849 126.722 231.947 126.774C231.992 126.846 232.051 126.879 232.132 126.862C232.282 126.888 232.38 126.986 232.484 127.091H232.5C232.624 127.267 232.887 127.205 233.001 127.391H232.991C233.079 127.453 233.177 127.525 233.275 127.587C233.31 127.659 233.362 127.685 233.441 127.665C233.6 127.692 233.704 127.789 233.802 127.894H233.818C233.952 128.07 234.215 127.998 234.329 128.194L234.313 128.178C234.41 128.25 234.508 128.312 234.602 128.38C234.638 128.452 234.69 128.478 234.762 128.452C234.921 128.468 235.035 128.576 235.133 128.69C235.266 128.857 235.556 128.779 235.628 129.027L235.592 128.991C235.839 129.053 235.758 129.353 235.937 129.467V129.484C236.077 129.68 236.087 129.908 236.165 130.12C236.093 130.235 236.103 130.349 236.165 130.466C235.969 130.721 236.191 131.119 235.865 131.322L235.891 131.286C235.846 131.426 235.751 131.524 235.618 131.586L235.634 131.57C235.563 131.694 235.475 131.798 235.335 131.834L235.361 131.808C235.263 132.036 234.99 131.974 234.834 132.108C234.71 132.294 234.456 132.232 234.323 132.392H234.313C234.189 132.552 233.935 132.48 233.828 132.676L233.792 132.693C233.688 132.755 233.616 132.869 233.483 132.905L233.499 132.888C233.385 133.101 233.128 133.048 232.972 133.179C232.848 133.355 232.594 133.293 232.461 133.463H232.445C232.347 133.561 232.279 133.675 232.129 133.692L232.155 133.665C232.051 133.914 231.777 133.852 231.602 133.976C230.599 134.338 229.734 134.974 228.819 135.494C208.676 147.138 188.527 158.789 168.404 170.475C167.216 171.164 166.282 171.154 165.1 170.465C142.598 157.408 120.08 144.389 97.5674 131.357C97.1899 131.135 96.7831 130.943 96.4413 130.669C95.4389 129.872 95.4975 128.619 96.5552 127.878C96.7765 127.727 97.0141 127.603 97.242 127.479C106.963 122.116 116.698 116.772 126.403 111.376C127.555 110.729 128.473 110.775 129.599 111.428C140.723 117.905 151.874 124.342 163.014 130.793C163.392 131.015 163.779 131.227 164.166 131.455C165.927 132.507 167.646 132.461 169.426 131.429C180.674 124.9 191.954 118.427 203.176 111.852C204.709 110.951 205.881 110.827 207.384 111.869C209.675 113.442 212.123 114.794 214.509 116.24C214.808 116.426 215.081 116.664 215.443 116.726C215.592 116.876 215.866 116.814 215.97 117.036L215.954 117.02C216.087 117.056 216.155 117.17 216.263 117.242H216.289C216.403 117.438 216.666 117.366 216.784 117.542C216.871 117.604 216.959 117.676 217.057 117.728H217.083L217.06 117.719Z" fill="#4A60AC"/>
<path d="M225.314 112.773C225.278 112.695 225.216 112.669 225.128 112.685C224.979 112.649 224.874 112.551 224.767 112.457C224.634 112.28 224.37 112.342 224.256 112.146L224.272 112.163C224.175 112.091 224.077 112.022 223.983 111.96C223.947 111.882 223.895 111.856 223.817 111.882C223.657 111.856 223.553 111.758 223.446 111.654C223.312 111.487 223.042 111.549 222.935 111.343L222.961 111.36C222.857 111.298 222.759 111.226 222.661 111.157C222.635 111.086 222.583 111.059 222.502 111.079C222.336 111.063 222.228 110.955 222.124 110.841C221.984 110.681 221.711 110.743 221.603 110.531C219.657 109.143 217.561 108.02 215.543 106.76C214.16 105.895 212.777 105.01 211.351 104.224C210.294 103.639 209.906 102.846 209.906 101.645C209.942 88.6686 209.923 75.6827 209.923 62.7066C209.923 62.0439 209.975 61.391 209.721 60.7447C209.262 59.5695 208.471 58.7664 207.387 58.1462C197.594 52.5019 187.808 46.8316 178.024 41.1678C177.188 40.6814 176.394 40.1069 175.479 39.7804C175.339 39.7445 175.232 39.6466 175.118 39.5585H175.102C174.988 39.3626 174.724 39.4246 174.601 39.2679C174.451 39.1178 174.187 39.17 174.073 38.9676L174.099 38.9839C173.995 38.9219 173.898 38.8501 173.8 38.7815C173.764 38.7032 173.712 38.6836 173.634 38.7032C173.484 38.6771 173.38 38.5791 173.263 38.4812C173.139 38.3049 172.876 38.3669 172.752 38.1907H172.768C172.68 38.1286 172.592 38.0568 172.485 38.0046C172.439 37.9262 172.371 37.9001 172.283 37.9164C172.15 37.8707 172.055 37.7761 171.938 37.6945H171.922C171.736 37.528 171.561 37.3484 171.401 37.1656V37.1493C171.297 37.0253 171.19 36.911 171.18 36.7445C171.164 36.6107 171.144 36.4703 171.118 36.3397C170.952 36.0035 171.014 35.6411 171.014 35.2984V2.52668C171.014 2.18065 170.942 1.82156 171.118 1.48533C171.18 1.41351 171.19 1.34496 171.154 1.25682C171.287 1.09033 171.242 0.83244 171.427 0.692069H171.418C171.489 0.594136 171.583 0.515789 171.671 0.417856C171.769 0.329716 171.847 0.22199 171.971 0.169759L171.945 0.186081C172.56 -0.0685449 173.168 -0.0522227 173.787 0.176288H173.771C173.858 0.238312 173.956 0.300336 174.054 0.352567C174.099 0.430914 174.168 0.457029 174.256 0.440707C174.389 0.476616 174.483 0.574549 174.591 0.652896C174.617 0.724713 174.662 0.750829 174.74 0.724713C174.906 0.734507 175.024 0.838969 175.128 0.953224C175.261 1.11971 175.525 1.05769 175.648 1.25355L175.632 1.23723C175.73 1.30905 175.828 1.37107 175.922 1.4331C175.967 1.51144 176.026 1.53756 176.107 1.51144C176.247 1.54735 176.355 1.64528 176.469 1.73342H176.485C176.599 1.92929 176.856 1.86727 176.986 2.02396C177.126 2.17412 177.39 2.12189 177.513 2.31449L177.487 2.29817C177.585 2.3602 177.689 2.43201 177.787 2.50057C177.823 2.57891 177.884 2.60503 177.963 2.57891C178.112 2.60503 178.216 2.71276 178.324 2.8009H178.334C178.457 2.98697 178.711 2.92494 178.845 3.09143H178.835C178.913 3.16325 179.011 3.22527 179.108 3.2775C179.16 3.35585 179.222 3.38197 179.32 3.36564C179.443 3.41135 179.541 3.49949 179.645 3.56804C179.681 3.63986 179.733 3.66597 179.805 3.63986C179.964 3.65618 180.068 3.7639 180.182 3.86837C180.316 4.03485 180.569 3.98262 180.703 4.1589H180.687C180.774 4.22093 180.872 4.28295 180.97 4.34497C181.015 4.42332 181.084 4.44944 181.165 4.43311C181.298 4.47882 181.393 4.56696 181.5 4.6453C181.517 4.71712 181.572 4.74324 181.64 4.71712C181.816 4.71712 181.93 4.83138 182.037 4.94563C182.177 5.10559 182.441 5.05009 182.558 5.24596L182.542 5.22964C182.639 5.30145 182.737 5.36348 182.831 5.4255C182.877 5.50385 182.936 5.52996 183.017 5.50385C183.157 5.53976 183.264 5.63769 183.378 5.72583H183.394C183.508 5.9217 183.772 5.85967 183.896 6.01637C184.036 6.16653 184.299 6.1143 184.423 6.31669L184.397 6.30037C184.501 6.3624 184.599 6.43421 184.696 6.50277C184.732 6.58111 184.784 6.60723 184.862 6.58111C185.012 6.60723 185.116 6.70516 185.233 6.80309H185.243C185.367 6.97937 185.63 6.92714 185.754 7.09363H185.738C185.826 7.16545 185.914 7.22747 186.021 7.2797C186.073 7.35805 186.145 7.38416 186.232 7.36784C186.356 7.41354 186.454 7.50168 186.558 7.58003C186.584 7.65185 186.636 7.67796 186.717 7.65185C186.877 7.66817 186.991 7.7759 187.095 7.88036C187.228 8.04685 187.492 7.99461 187.616 8.18069H187.599C187.687 8.24271 187.785 8.30474 187.883 8.36676C187.928 8.44511 187.987 8.47122 188.078 8.4549C188.211 8.49081 188.315 8.57895 188.423 8.66709C188.449 8.73891 188.494 8.76502 188.563 8.72911C188.739 8.72911 188.852 8.84337 188.96 8.95762C189.1 9.11758 189.363 9.05556 189.481 9.24816L189.455 9.23184C189.552 9.30365 189.65 9.36568 189.744 9.4277C189.78 9.50605 189.842 9.53216 189.93 9.50605C190.079 9.54196 190.177 9.63989 190.291 9.72803H190.307C190.431 9.9141 190.685 9.85208 190.818 10.0186C190.968 10.1687 191.232 10.1067 191.345 10.3189L191.319 10.3026C191.424 10.3646 191.521 10.4364 191.619 10.505C191.655 10.5768 191.707 10.6029 191.785 10.5768C191.935 10.6029 192.048 10.7008 192.156 10.7988C192.289 10.975 192.543 10.913 192.667 11.0893H192.651C192.738 11.1513 192.826 11.2231 192.934 11.2754C192.979 11.3537 193.048 11.3798 193.135 11.3635C193.269 11.3994 193.363 11.4974 193.471 11.5757C193.497 11.6475 193.549 11.6736 193.62 11.6475C193.786 11.6573 193.904 11.7618 194.008 11.876C194.141 12.0425 194.405 11.9805 194.528 12.1764L194.512 12.16C194.61 12.2319 194.698 12.2939 194.802 12.3559C194.847 12.4342 194.906 12.4604 194.997 12.4342C195.137 12.4702 195.235 12.5746 195.349 12.6562H195.365C195.479 12.8521 195.736 12.7901 195.866 12.9468C196.006 13.1067 196.27 13.0447 196.387 13.2471L196.361 13.2308C196.458 13.2928 196.563 13.3646 196.66 13.4266C196.696 13.505 196.758 13.5311 196.836 13.505C196.986 13.5311 197.09 13.6388 197.197 13.727H197.207C197.331 13.913 197.585 13.851 197.718 14.0175H197.708C197.786 14.0893 197.884 14.1513 197.982 14.2036C198.034 14.2819 198.105 14.308 198.193 14.2917C198.317 14.3374 198.405 14.4321 198.509 14.4941C198.545 14.5659 198.597 14.592 198.668 14.5725C198.828 14.5888 198.932 14.6965 199.046 14.7944C199.179 14.9707 199.433 14.9087 199.557 15.085H199.541C199.628 15.147 199.726 15.209 199.824 15.271C199.869 15.3494 199.938 15.3755 200.025 15.3592C200.159 15.3951 200.253 15.493 200.361 15.5714C200.387 15.6432 200.432 15.6693 200.51 15.6432C200.676 15.653 200.794 15.7574 200.898 15.8717C201.038 16.0317 201.295 15.9762 201.418 16.1622L201.402 16.1459C201.5 16.2177 201.597 16.2798 201.692 16.3418C201.737 16.4201 201.796 16.4462 201.877 16.4201C202.017 16.456 202.125 16.554 202.239 16.6421H202.255C202.369 16.838 202.626 16.7759 202.756 16.9326C202.896 17.0828 203.16 17.0306 203.283 17.233L203.257 17.2167C203.355 17.2787 203.459 17.3505 203.557 17.419C203.593 17.4974 203.654 17.5235 203.732 17.4974C203.882 17.5235 203.986 17.6312 204.094 17.7194H204.103C204.227 17.9054 204.481 17.8434 204.614 18.0099H204.605C204.683 18.0817 204.78 18.1438 204.878 18.196C204.93 18.2743 204.992 18.3004 205.09 18.2841C205.213 18.3298 205.311 18.418 205.415 18.4865C205.441 18.5583 205.493 18.5844 205.575 18.5583C205.734 18.5747 205.848 18.6824 205.952 18.7868C206.086 18.9533 206.349 18.9011 206.473 19.0774H206.457C206.544 19.1394 206.642 19.2014 206.74 19.2635C206.785 19.3418 206.854 19.3679 206.935 19.3516C207.068 19.3973 207.163 19.4854 207.27 19.5638C207.286 19.6356 207.342 19.6617 207.41 19.6356C207.586 19.6356 207.7 19.7499 207.807 19.8641C207.947 20.0241 208.211 19.9686 208.328 20.1644L208.302 20.1481C208.4 20.2199 208.497 20.282 208.592 20.344C208.627 20.4223 208.689 20.4484 208.777 20.4223C208.917 20.4582 209.024 20.5562 209.138 20.6443H209.155C209.269 20.8402 209.532 20.7781 209.656 20.9348C209.806 21.085 210.069 21.0328 210.183 21.2352L210.157 21.2188C210.261 21.2809 210.359 21.3527 210.456 21.4212C210.492 21.4996 210.544 21.5257 210.622 21.4996C210.772 21.5257 210.876 21.6236 210.993 21.7216C211.117 21.8979 211.381 21.8358 211.504 22.0121H211.488C211.576 22.0741 211.664 22.1459 211.771 22.1982C211.817 22.2765 211.885 22.3026 211.973 22.2863C212.097 22.332 212.194 22.4202 212.299 22.4985C212.325 22.5703 212.377 22.5964 212.458 22.5703C212.618 22.5866 212.731 22.6944 212.836 22.7988C212.969 22.9653 213.233 22.9131 213.356 23.0894H213.34C213.428 23.1514 213.526 23.2134 213.623 23.2754C213.669 23.3538 213.727 23.3799 213.818 23.3636C213.952 23.3995 214.056 23.4876 214.163 23.5758C214.18 23.6476 214.225 23.6737 214.297 23.6378C214.473 23.6378 214.587 23.7521 214.694 23.8663C214.834 24.0263 215.098 23.9642 215.215 24.1666L215.189 24.1503C215.286 24.2221 215.384 24.2842 215.488 24.3527C215.524 24.4311 215.586 24.4572 215.674 24.4311C215.823 24.467 215.921 24.5649 216.035 24.653H216.051C216.175 24.8391 216.429 24.7771 216.562 24.9436C216.712 25.0937 216.975 25.0317 217.089 25.2439L217.063 25.2276C217.167 25.2896 217.265 25.3614 217.363 25.43C217.399 25.5018 217.451 25.5279 217.529 25.5083C217.688 25.5344 217.792 25.6324 217.9 25.7303C218.033 25.9066 218.287 25.8446 218.411 26.0208H218.394C218.482 26.0829 218.57 26.1547 218.678 26.2069C218.723 26.2853 218.792 26.3114 218.879 26.295C219.013 26.331 219.107 26.4289 219.215 26.5072C219.241 26.5791 219.293 26.6052 219.364 26.5791C219.53 26.5888 219.647 26.6933 219.752 26.8076C219.885 26.9741 220.149 26.912 220.272 27.1079L220.256 27.0916C220.354 27.1634 220.451 27.2254 220.546 27.2874C220.591 27.3658 220.65 27.3919 220.741 27.3658C220.881 27.4017 220.979 27.5062 221.093 27.5878H221.109C221.223 27.7836 221.48 27.7216 221.61 27.8783C221.75 28.0285 222.014 27.9762 222.137 28.1786L222.111 28.1623C222.209 28.2243 222.313 28.2961 222.411 28.3582C222.446 28.4365 222.508 28.4626 222.586 28.4365C222.736 28.4626 222.84 28.5704 222.948 28.6585H222.957C223.081 28.8446 223.335 28.7825 223.468 28.949H223.459C223.537 29.0209 223.634 29.0829 223.732 29.1351C223.784 29.2135 223.856 29.2396 223.944 29.2232C224.067 29.2689 224.155 29.3571 224.269 29.4256C224.305 29.4975 224.357 29.5236 224.428 29.4975C224.588 29.5138 224.692 29.6215 224.806 29.7194C224.939 29.8957 225.193 29.8337 225.317 30.01H225.301C225.389 30.072 225.486 30.134 225.584 30.1961C225.629 30.2744 225.698 30.3005 225.786 30.2842C225.919 30.3201 226.013 30.418 226.121 30.4964C226.147 30.5682 226.192 30.5943 226.271 30.5682C226.437 30.578 226.554 30.6824 226.658 30.7967C226.798 30.9567 227.055 30.9012 227.179 31.0872L227.162 31.0709C227.26 31.1427 227.358 31.2048 227.452 31.2668C227.498 31.3451 227.556 31.3712 227.638 31.3451C227.777 31.381 227.885 31.479 227.999 31.5671H228.015C228.129 31.763 228.386 31.701 228.516 31.8576C228.656 32.0078 228.92 31.9556 229.044 32.158L229.017 32.1417C229.122 32.2037 229.219 32.2755 229.317 32.3375C229.353 32.4159 229.415 32.442 229.493 32.4159C229.642 32.442 229.747 32.5497 229.854 32.6379H229.864C229.987 32.8141 230.251 32.7619 230.375 32.9284H230.365C230.453 33.0002 230.541 33.0622 230.638 33.1145C230.69 33.1928 230.762 33.2189 230.85 33.2026C230.973 33.2483 231.071 33.3364 231.175 33.405C231.201 33.4768 231.253 33.5029 231.335 33.4768C231.494 33.4931 231.608 33.6009 231.712 33.7053C231.846 33.8718 232.109 33.8196 232.233 34.0056H232.217C232.305 34.0677 232.402 34.1297 232.5 34.1917C232.545 34.2701 232.604 34.2962 232.695 34.2799C232.829 34.3256 232.923 34.4137 233.03 34.4921C233.056 34.5639 233.102 34.59 233.17 34.5541C233.346 34.5541 233.46 34.6683 233.567 34.7826C233.707 34.9425 233.971 34.887 234.088 35.0829L234.062 35.0666C234.16 35.1384 234.257 35.2004 234.352 35.2625C234.388 35.3408 234.449 35.3669 234.537 35.3408C234.677 35.3767 234.785 35.4746 234.899 35.5628H234.915C235.029 35.7587 235.292 35.6868 235.416 35.8533C235.566 36.0035 235.829 35.9415 235.943 36.1536L235.917 36.1373C236.021 36.1993 236.119 36.2712 236.217 36.3397C236.252 36.4181 236.305 36.4377 236.383 36.4181C236.532 36.4442 236.637 36.5421 236.754 36.64C236.877 36.8163 237.141 36.7543 237.265 36.9306H237.248C237.336 36.9926 237.424 37.0644 237.532 37.1167C237.577 37.195 237.645 37.2211 237.733 37.2048C237.857 37.2505 237.955 37.3386 238.059 37.417C238.085 37.4888 238.137 37.5149 238.218 37.4888C238.384 37.5051 238.492 37.6129 238.596 37.7173C238.729 37.8838 238.993 37.8218 239.117 38.0078H239.1C239.188 38.0699 239.286 38.1319 239.39 38.1939C239.435 38.2723 239.494 38.2984 239.585 38.2821C239.719 38.318 239.823 38.4061 239.93 38.4942C239.946 38.5661 239.992 38.5922 240.064 38.5563C240.239 38.5563 240.353 38.6705 240.461 38.7848C240.601 38.9447 240.864 38.8827 240.981 39.0851L240.955 39.0688C241.053 39.1308 241.157 39.2026 241.255 39.2647C241.291 39.343 241.352 39.3691 241.44 39.343C241.59 39.3789 241.688 39.4768 241.802 39.565H241.811C241.935 39.7511 242.189 39.689 242.322 39.8653H242.313C242.4 39.9371 242.508 40.0155 242.602 40.0775L242.638 40.1036C242.69 40.2081 242.771 40.2897 242.866 40.3419L242.882 40.368C242.934 40.4823 243.048 40.5639 243.094 40.6847L243.077 40.6586C243.387 41.0568 243.237 41.5139 243.237 41.9382V119.975C243.237 120.409 243.351 120.866 243.113 121.274C242.954 121.408 243.016 121.688 242.797 121.786L242.833 121.75C242.771 121.91 242.658 121.999 242.498 122.041C242.42 122.015 242.358 122.041 242.313 122.119C242.199 122.191 242.091 122.296 241.942 122.305H241.069C240.874 122.201 240.63 122.234 240.47 122.041H240.487C240.399 121.979 240.301 121.917 240.204 121.855C240.168 121.777 240.106 121.75 240.018 121.767C239.868 121.731 239.764 121.633 239.657 121.538C239.523 121.362 239.26 121.424 239.146 121.228L239.162 121.244C239.064 121.173 238.967 121.104 238.872 121.042C238.837 120.964 238.785 120.938 238.706 120.964C238.547 120.938 238.443 120.84 238.335 120.735C238.202 120.569 237.932 120.631 237.824 120.425L237.85 120.441C237.746 120.379 237.649 120.308 237.551 120.239C237.525 120.167 237.473 120.141 237.392 120.161C237.226 120.144 237.118 120.037 237.014 119.922C236.874 119.762 236.61 119.824 236.493 119.612L236.519 119.629C236.396 119.593 236.318 119.488 236.21 119.416L236.158 119.345H236.07C235.894 119.345 235.781 119.23 235.673 119.106C235.595 119.034 235.507 118.966 235.4 118.92C235.354 118.842 235.286 118.806 235.198 118.822C235.065 118.777 234.96 118.682 234.853 118.6H234.837C234.723 118.404 234.459 118.466 234.336 118.29H234.352C234.264 118.228 234.176 118.156 234.069 118.104C234.023 118.026 233.964 118 233.873 118.016C233.733 117.98 233.626 117.876 233.522 117.794H233.512C233.388 117.608 233.125 117.67 233.011 117.484H233.027C232.939 117.422 232.842 117.36 232.744 117.298C232.708 117.219 232.646 117.193 232.558 117.21C232.409 117.174 232.305 117.076 232.197 116.981C232.064 116.805 231.8 116.867 231.686 116.671L231.703 116.687C231.605 116.616 231.507 116.547 231.413 116.485C231.377 116.407 231.325 116.38 231.247 116.407C231.087 116.38 230.983 116.283 230.876 116.178C230.742 116.012 230.472 116.074 230.365 115.868L230.391 115.884C230.287 115.822 230.189 115.75 230.091 115.682C230.065 115.61 230.013 115.584 229.932 115.604C229.766 115.587 229.659 115.479 229.554 115.365C229.415 115.205 229.151 115.267 229.034 115.055L229.06 115.071C228.936 115.036 228.858 114.931 228.751 114.859L228.699 114.787H228.611C228.435 114.787 228.321 114.673 228.214 114.549C228.135 114.477 228.048 114.409 227.94 114.363C227.895 114.285 227.826 114.249 227.738 114.265C227.605 114.219 227.501 114.125 227.393 114.043H227.377C227.263 113.847 227 113.909 226.876 113.733H226.892C226.804 113.671 226.716 113.599 226.609 113.547C226.564 113.469 226.505 113.442 226.414 113.459C226.274 113.423 226.166 113.318 226.062 113.237H226.053C225.929 113.051 225.665 113.113 225.551 112.927H225.568C225.48 112.865 225.382 112.803 225.284 112.741L225.337 112.767L225.314 112.773Z" fill="#EF3D23"/>
<path d="M144.014 47.2266C143.6 47.2788 143.301 47.553 142.956 47.7554C137.443 50.935 131.955 54.1602 126.416 57.3039C124.424 58.4334 123.546 60.0232 123.555 62.2854C123.581 75.0069 123.546 87.735 123.601 100.456C123.601 101.958 123.09 102.781 121.795 103.486C112.405 108.601 103.019 113.743 93.7009 118.989C91.6667 120.138 90.3291 119.361 90.3291 117.037C90.4007 91.8971 90.3812 66.7642 90.3454 41.6215C90.3454 40.2439 90.7945 39.4474 91.9824 38.7684C112.89 26.7128 133.781 14.6214 154.679 2.52663C155.057 2.30465 155.49 2.16428 155.773 1.81172C155.87 1.58974 156.134 1.64523 156.284 1.51139C156.398 1.33511 156.655 1.39714 156.785 1.22739H156.811C156.915 1.11313 157.022 1.00541 157.182 0.998876C157.26 1.03478 157.315 0.998876 157.341 0.92053C157.439 0.848712 157.537 0.780159 157.641 0.724663H157.631C157.735 0.528797 158.002 0.584293 158.142 0.440657C158.266 0.264378 158.513 0.326402 158.643 0.166445H158.669C159.197 -0.0359503 159.717 -0.0359503 160.238 0.166445H160.264C160.378 0.342724 160.677 0.264378 160.723 0.519004L160.697 0.492888C160.961 0.554913 160.882 0.845448 161.032 0.97929C161.286 1.38408 161.166 1.84437 161.166 2.27854V35.8729C161.166 36.2972 161.332 36.764 160.99 37.146L161.006 37.1101C160.98 37.2505 160.866 37.3321 160.778 37.4202H160.768C160.69 37.5181 160.602 37.6063 160.505 37.6748C160.427 37.7793 160.345 37.8968 160.189 37.8968L160.241 37.9425L160.189 37.8903C160.111 38.1449 159.844 38.0764 159.678 38.1906C159.574 38.4028 159.317 38.3408 159.167 38.4811H159.157C159.044 38.6574 158.786 38.5856 158.673 38.7651L158.637 38.7815C158.539 38.8598 158.471 38.9773 158.328 38.9773C158.24 39.2156 157.976 39.1438 157.817 39.2679C157.703 39.4637 157.446 39.4017 157.306 39.5519H157.289C157.175 39.7282 156.918 39.6498 156.814 39.8359L156.769 39.8522C156.681 39.9403 156.573 40.0024 156.459 40.0481C156.372 40.2701 156.098 40.208 155.948 40.3386C155.834 40.5247 155.577 40.4627 155.447 40.6226H155.421C155.158 40.8185 154.9 41.0111 154.601 41.1188C154.497 41.331 154.24 41.269 154.09 41.4093C153.976 41.5954 153.719 41.5236 153.595 41.6933L153.569 41.7097C153.472 41.788 153.41 41.9121 153.254 41.9055L153.315 41.9512L153.263 41.899C153.185 42.1536 152.918 42.0851 152.762 42.1993C152.658 42.4017 152.391 42.3397 152.251 42.4833H152.241C152.118 42.6596 151.87 42.5878 151.756 42.7673L151.721 42.7837C151.633 42.8718 151.525 42.9436 151.411 42.9795C151.324 43.208 151.06 43.146 150.901 43.2701C150.787 43.4659 150.529 43.4039 150.399 43.5541H150.383C150.129 43.7499 149.872 43.9523 149.556 44.0503C149.459 44.2723 149.195 44.2102 149.045 44.3408C148.931 44.5269 148.674 44.4649 148.544 44.6248H148.518C148.43 44.7227 148.359 44.8533 148.202 44.8272L148.274 44.8729L148.212 44.8207C148.141 45.0851 147.867 45.0165 147.701 45.121C147.597 45.3332 147.34 45.2712 147.19 45.4115C147.076 45.5878 146.819 45.5258 146.696 45.6955L146.66 45.7119C146.562 45.7902 146.494 45.9143 146.344 45.9077L146.396 45.9534L146.351 45.9012C146.272 46.1493 145.999 46.0873 145.84 46.2015C145.735 46.4039 145.469 46.3419 145.329 46.4855H145.319C145.205 46.6618 144.948 46.59 144.834 46.7696L144.788 46.7859C144.7 46.874 144.593 46.936 144.479 46.9817H144.489C144.391 47.22 144.118 47.1482 143.962 47.2723L144.014 47.2462V47.2266Z" fill="#252D6A"/>
<path d="M89.4373 124.094C80.1943 124.094 70.9903 117.696 67.97 108.458C66.3655 103.551 63.3289 86.6284 91.6082 74.8176C92.9556 74.2496 94.5015 74.8927 95.0613 76.2442C95.6211 77.5957 94.9864 79.1463 93.639 79.7078C77.379 86.4978 69.6591 96.6306 72.9886 106.809C75.6867 115.058 84.7442 120.363 92.7733 118.404C94.1923 118.045 95.6178 118.93 95.9661 120.35C96.3111 121.77 95.4453 123.206 94.0263 123.552C92.5162 123.925 90.9768 124.098 89.4406 124.101L89.4373 124.094Z" fill="#133441"/>
<path d="M99.367 122.88C100.334 121.91 101.46 121.068 102.677 120.376C103.12 119.664 103.605 118.992 104.122 118.381C104.558 116.821 105.245 115.293 106.094 113.922C104.5 112.329 102.267 111.457 99.7153 111.369C98.1563 110.38 96.3142 109.881 94.5567 110.152C91.5788 110.609 88.412 113.383 89.2745 119.703C89.8864 124.189 92.3436 127.251 95.9171 128.096C96.7601 126.108 97.9773 124.27 99.3638 122.88H99.367Z" fill="white"/>
<path d="M98.1954 127.861C97.4013 128.015 96.5942 128.057 95.8033 127.962C92.2655 127.551 89.8116 124.793 89.2388 120.588C88.4967 115.15 91.2208 112.763 93.7822 112.372C95.2923 112.14 96.8773 112.567 98.2182 113.419C100.519 113.498 102.521 114.317 103.904 115.815C105.502 117.549 105.997 119.929 105.193 122.021C104.044 125.015 101.216 127.274 98.1954 127.865V127.861Z" fill="#133441"/>
</g>
<g clip-path="url(#clip1_247_182)">
<path d="M297.669 9.39551H294.311C293.344 9.39551 292.561 10.1764 292.561 11.1341C292.561 12.0918 293.344 12.8752 294.311 12.8752H297.669C298.635 12.8752 299.421 12.0943 299.421 11.1341C299.421 10.1738 298.635 9.39551 297.669 9.39551Z" fill="#BCCAD3"/>
<path d="M283.858 11.1341C283.858 10.1738 283.072 9.39551 282.108 9.39551H278.75C277.784 9.39551 277 10.1764 277 11.1341C277 12.0918 277.784 12.8752 278.75 12.8752H282.108C283.075 12.8752 283.858 12.0943 283.858 11.1341Z" fill="#BCCAD3"/>
<path d="M288.211 15.4575C287.244 15.4575 286.458 16.2384 286.458 17.1961V20.5317C286.458 21.492 287.244 22.2703 288.211 22.2703C289.177 22.2703 289.961 21.4895 289.961 20.5317V17.1961C289.961 16.2358 289.177 15.4575 288.211 15.4575Z" fill="#BCCAD3"/>
<path d="M288.211 0C287.244 0 286.458 0.778317 286.458 1.73858V5.07422C286.458 6.03449 287.244 6.8128 288.211 6.8128C289.177 6.8128 289.961 6.03449 289.961 5.07422V1.73858C289.961 0.778317 289.177 0 288.211 0Z" fill="#BCCAD3"/>
<path d="M293.761 14.1915C293.079 13.5117 291.968 13.5117 291.284 14.1915C290.602 14.8712 290.602 15.9755 291.284 16.6528L293.657 19.0105C293.998 19.3491 294.448 19.5209 294.896 19.5209C295.343 19.5209 295.794 19.3516 296.135 19.0105C296.816 18.3332 296.816 17.2314 296.135 16.5492L293.759 14.1915H293.761Z" fill="#BCCAD3"/>
<path d="M282.759 3.26224C282.1 2.60522 280.943 2.60017 280.281 3.26224C279.951 3.59075 279.768 4.0254 279.768 4.49037C279.768 4.95533 279.948 5.39503 280.281 5.72354L282.655 8.08124C282.996 8.41986 283.446 8.58917 283.894 8.58917C284.341 8.58917 284.792 8.41986 285.133 8.08124C285.473 7.74262 285.646 7.31303 285.646 6.84806C285.646 6.38309 285.463 5.94845 285.133 5.61994L282.759 3.26224Z" fill="#BCCAD3"/>
<path d="M282.658 14.1915L280.284 16.5492C279.953 16.8777 279.77 17.3174 279.77 17.7823C279.77 18.2473 279.953 18.682 280.284 19.0105C280.615 19.339 281.052 19.5209 281.523 19.5209C281.994 19.5209 282.434 19.3415 282.762 19.0105L285.135 16.6528C285.466 16.3243 285.649 15.8896 285.649 15.4246C285.649 14.9597 285.468 14.5225 285.135 14.1915C284.453 13.5117 283.344 13.5117 282.658 14.1915Z" fill="#BCCAD3"/>
<path d="M292.525 8.58919C292.973 8.58919 293.42 8.41988 293.761 8.08126L296.137 5.72357C296.819 5.0438 296.819 3.9395 296.137 3.26226C295.456 2.5825 294.341 2.5825 293.66 3.26226L291.286 5.61996C290.604 6.2972 290.604 7.39897 291.286 8.08126C291.627 8.41988 292.077 8.58919 292.525 8.58919Z" fill="#BCCAD3"/>
<g opacity="0.34">
<path d="M339.273 30.9658H334.048C332.545 30.9658 331.323 32.1788 331.323 33.6722C331.323 35.1657 332.545 36.3812 334.048 36.3812H339.273C340.776 36.3812 342 35.1657 342 33.6722C342 32.1788 340.776 30.9658 339.273 30.9658Z" fill="#EF3D23"/>
<path d="M317.788 33.6722C317.788 32.1788 316.567 30.9658 315.063 30.9658H309.838C308.335 30.9658 307.114 32.1788 307.114 33.6722C307.114 35.1657 308.335 36.3812 309.838 36.3812H315.063C316.567 36.3812 317.788 35.1657 317.788 33.6722Z" fill="#EF3D23"/>
<path d="M324.557 40.3989C323.053 40.3989 321.83 41.6119 321.83 43.1053V48.2958C321.83 49.7893 323.053 51.0022 324.557 51.0022C326.06 51.0022 327.281 49.7893 327.281 48.2958V43.1053C327.281 41.6119 326.06 40.3989 324.557 40.3989Z" fill="#EF3D23"/>
<path d="M324.557 16.3496C323.053 16.3496 321.83 17.5626 321.83 19.056V24.2465C321.83 25.74 323.053 26.9529 324.557 26.9529C326.06 26.9529 327.281 25.74 327.281 24.2465V19.056C327.281 17.5626 326.06 16.3496 324.557 16.3496Z" fill="#EF3D23"/>
<path d="M333.196 38.428C332.132 37.3717 330.405 37.3717 329.342 38.428C328.281 39.4868 328.281 41.2026 329.342 42.2564L333.035 45.9256C333.567 46.4537 334.267 46.7191 334.964 46.7191C335.661 46.7191 336.36 46.4537 336.892 45.9256C337.953 44.8718 337.953 43.156 336.892 42.0972L333.196 38.428Z" fill="#EF3D23"/>
<path d="M316.078 21.4238C315.05 20.4003 313.249 20.3953 312.224 21.4238C311.71 21.9342 311.426 22.6115 311.426 23.3342C311.426 24.0569 311.708 24.7417 312.224 25.2522L315.918 28.9214C316.45 29.4495 317.147 29.7123 317.844 29.7123C318.541 29.7123 319.24 29.4495 319.772 28.9214C320.288 28.4084 320.571 27.7261 320.571 27.0034C320.571 26.2807 320.286 25.6034 319.772 25.093L316.078 21.4238Z" fill="#EF3D23"/>
<path d="M315.916 38.428L312.222 42.0972C311.705 42.6101 311.423 43.2924 311.423 44.0152C311.423 44.7379 311.708 45.4151 312.222 45.9256C312.736 46.4386 313.417 46.7191 314.148 46.7191C314.878 46.7191 315.564 46.4386 316.076 45.9256L319.769 42.2564C320.283 41.7459 320.568 41.0687 320.568 40.346C320.568 39.6232 320.286 38.9409 319.769 38.428C318.709 37.3717 316.981 37.3717 315.916 38.428Z" fill="#EF3D23"/>
<path d="M331.27 29.7126C331.97 29.7126 332.664 29.4498 333.196 28.9217L336.892 25.2525C337.953 24.1936 337.953 22.4753 336.892 21.4241C335.828 20.3678 334.099 20.3678 333.035 21.4241L329.342 25.0933C328.281 26.147 328.281 27.8629 329.342 28.9217C329.873 29.4498 330.57 29.7126 331.27 29.7126Z" fill="#EF3D23"/>
</g>
</g>
<g clip-path="url(#clip2_247_182)">
<path d="M41.8061 152.582L42.9745 150.453C43.3109 149.84 43.0884 149.072 42.4811 148.738C41.8738 148.405 41.1045 148.629 40.7681 149.242L39.5997 151.371C39.2634 151.984 39.485 152.754 40.0939 153.089C40.7027 153.423 41.4698 153.195 41.8061 152.582Z" fill="#BCCAD3"/>
<path d="M45.5091 143.22C46.1179 143.554 46.885 143.327 47.2204 142.715L48.3888 140.586C48.7252 139.973 48.5027 139.205 47.8954 138.872C47.2881 138.538 46.5188 138.763 46.1824 139.376L45.014 141.505C44.6777 142.118 44.9002 142.886 45.5091 143.22Z" fill="#BCCAD3"/>
<path d="M41.2532 144.476C41.5895 143.863 41.3679 143.093 40.7606 142.759L38.6456 141.599C38.0367 141.265 37.2697 141.492 36.9333 142.105C36.597 142.718 36.8194 143.486 37.4267 143.82L39.5418 144.98C40.1507 145.315 40.9168 145.089 41.2532 144.476Z" fill="#BCCAD3"/>
<path d="M51.0544 149.854C51.3908 149.241 51.1708 148.472 50.5619 148.138L48.4468 146.977C47.838 146.643 47.0709 146.871 46.7346 147.483C46.3982 148.096 46.6191 148.864 47.228 149.198L49.3431 150.359C49.9519 150.693 50.7181 150.467 51.0544 149.854Z" fill="#BCCAD3"/>
<path d="M40.1245 148.436C40.7927 148.24 41.1795 147.535 40.9866 146.865C40.7928 146.196 40.0926 145.812 39.4259 146.008L37.1051 146.693C36.7718 146.791 36.5062 147.017 36.3504 147.301C36.1946 147.585 36.1453 147.929 36.243 148.264C36.4352 148.932 37.1338 149.315 37.8037 149.12L40.1254 148.434L40.1245 148.436Z" fill="#BCCAD3"/>
<path d="M50.8827 145.262C51.5286 145.073 51.9345 144.341 51.7448 143.691C51.6516 143.367 51.4397 143.1 51.1449 142.938C50.8501 142.776 50.5084 142.738 50.1842 142.835L47.8634 143.519C47.5301 143.618 47.266 143.844 47.1102 144.128C46.9545 144.412 46.9052 144.757 47.0013 145.09C47.0974 145.424 47.3096 145.684 47.6044 145.845C47.8992 146.007 48.2385 146.042 48.5619 145.947L50.8827 145.262Z" fill="#BCCAD3"/>
<path d="M43.988 141.395L43.3189 139.07C43.2257 138.746 43.0106 138.477 42.7157 138.315C42.4209 138.153 42.0816 138.118 41.7582 138.213C41.4349 138.309 41.1672 138.523 41.0035 138.821C40.8397 139.12 40.8004 139.461 40.8961 139.784L41.5652 142.11C41.6585 142.434 41.8703 142.701 42.1651 142.863C42.46 143.025 42.8 143.062 43.1259 142.966C43.7941 142.77 44.18 142.067 43.988 141.395Z" fill="#BCCAD3"/>
<path d="M44.107 149.601C43.9513 149.885 43.9028 150.227 43.9989 150.561L44.6672 152.888C44.861 153.557 45.5612 153.941 46.2278 153.745C46.8961 153.549 47.2838 152.843 47.09 152.174L46.4208 149.848C46.2286 149.18 45.53 148.797 44.8602 148.992C44.5269 149.09 44.2628 149.317 44.107 149.601Z" fill="#BCCAD3"/>
<g opacity="0.34">
<path d="M13.6521 171.457L15.4702 168.144C15.9933 167.191 15.6491 165.994 14.7021 165.475C13.7552 164.955 12.5596 165.306 12.0364 166.26L10.2184 169.573C9.69524 170.526 10.0402 171.725 10.9872 172.245C11.9342 172.764 13.129 172.41 13.6521 171.457Z" fill="#123388"/>
<path d="M19.4119 156.892C20.3589 157.411 21.5528 157.059 22.076 156.106L23.8941 152.793C24.4172 151.84 24.0729 150.643 23.126 150.124C22.179 149.604 20.9834 149.955 20.4603 150.909L18.6422 154.222C18.1191 155.175 18.4649 156.372 19.4119 156.892Z" fill="#123388"/>
<path d="M12.7911 158.843C13.3142 157.89 12.9709 156.692 12.0239 156.173L8.73273 154.366C7.78576 153.847 6.59089 154.201 6.06777 155.154C5.54465 156.107 5.8889 157.303 6.83587 157.823L10.127 159.629C11.074 160.149 12.268 159.797 12.7911 158.843Z" fill="#123388"/>
<path d="M28.0404 167.212C28.5635 166.258 28.2201 165.06 27.2732 164.541L23.982 162.735C23.035 162.215 21.8402 162.569 21.317 163.522C20.7939 164.475 21.1382 165.672 22.0851 166.191L25.3763 167.997C26.3233 168.517 27.5173 168.165 28.0404 167.212Z" fill="#123388"/>
<path d="M11.0349 165.007C12.0746 164.7 12.6757 163.605 12.3759 162.563C12.0736 161.522 10.9856 160.925 9.94835 161.231L6.33655 162.296C5.81667 162.45 5.40501 162.801 5.16248 163.243C4.91996 163.685 4.84478 164.221 4.99468 164.742C5.29374 165.781 6.38172 166.378 7.4222 166.074L11.0349 165.007Z" fill="#123388"/>
<path d="M27.773 160.07C28.7796 159.775 29.4095 158.634 29.114 157.626C28.9692 157.123 28.6389 156.707 28.1806 156.455C27.7224 156.204 27.1899 156.144 26.6865 156.294L23.0747 157.36C22.5548 157.513 22.1457 157.864 21.9031 158.305C21.6606 158.747 21.5838 159.282 21.7337 159.803C21.8793 160.309 22.2137 160.726 22.672 160.977C23.1302 161.229 23.6588 161.284 24.1612 161.135L27.773 160.07Z" fill="#123388"/>
<path d="M17.0478 154.05L16.0064 150.431C15.8609 149.925 15.5265 149.509 15.0682 149.257C14.61 149.006 14.0814 148.951 13.5789 149.099C13.0749 149.246 12.6598 149.581 12.4057 150.044C12.1517 150.507 12.0906 151.04 12.2379 151.543L13.2793 155.162C13.4241 155.665 13.7544 156.081 14.2127 156.333C14.671 156.584 15.2018 156.643 15.7068 156.494C16.7457 156.189 17.3467 155.093 17.0478 154.05Z" fill="#123388"/>
<path d="M17.2315 166.819C16.9881 167.262 16.9131 167.794 17.063 168.315L18.1035 171.936C18.4057 172.977 19.4953 173.574 20.531 173.268C21.5708 172.961 22.1727 171.864 21.8729 170.822L20.8315 167.204C20.5325 166.164 19.4445 165.567 18.404 165.871C17.8841 166.025 17.475 166.375 17.2315 166.819Z" fill="#123388"/>
</g>
</g>
<defs>
<clipPath id="clip0_247_182">
<rect width="210" height="184" fill="white" transform="translate(67)"/>
</clipPath>
<clipPath id="clip1_247_182">
<rect width="65" height="51" fill="white" transform="translate(277)"/>
</clipPath>
<clipPath id="clip2_247_182">
<rect width="47.0131" height="36.8872" fill="white" transform="translate(54.9553 142.746) rotate(118.756)"/>
</clipPath>
</defs>
</svg>
