<svg width="24" height="20" viewBox="0 0 24 20" fill="none" xmlns="http://www.w3.org/2000/svg">
<path d="M23.9191 16V18C23.9191 19.1032 22.9768 20 21.8195 20H3.76292C1.91024 20 0.403564 18.5648 0.403564 16.8C0.403564 16.8 0.403564 3.212 0.403564 3.2C0.403564 1.4352 1.91024 0 3.76292 0H19.3C19.9962 0 20.5597 0.5376 20.5597 1.2C20.5597 1.8624 19.9962 2.4 19.3 2.4H3.76292C3.30017 2.4 2.92308 2.7584 2.92308 3.2C2.92308 3.6416 3.30017 4 3.76292 4H21.8195C22.9768 4 23.9191 4.8968 23.9191 6V8H19.7199C17.4044 8 15.5207 9.7944 15.5207 12C15.5207 14.2056 17.4044 16 19.7199 16H23.9191Z" fill="#4A60AC"/>
<path d="M23.9192 9.6001V14.4001H19.72C18.3283 14.4001 17.2004 13.3257 17.2004 12.0001C17.2004 10.6745 18.3283 9.6001 19.72 9.6001H23.9192Z" fill="#EF3D23"/>
</svg>
