<svg width="20" height="20" viewBox="0 0 20 20" fill="none" xmlns="http://www.w3.org/2000/svg">
<path d="M6.31579 0.525391C2.83158 0.525391 0.147368 3.35697 0 6.84118V19.4728H9.47368V11.5359C10.6316 12.578 12.1053 13.157 13.6842 13.157C17.1684 13.157 20 10.3254 20 6.84118C20 3.35697 17.1684 0.525391 13.6842 0.525391H6.31579ZM6.31579 2.63065H8.98947C7.94737 3.78855 7.36842 5.26223 7.36842 6.84118V9.99907H6.31579V11.0517H7.36842V17.3675H2.10526V11.0517H3.15789V9.99907H2.10526V6.84118C2.10526 4.51486 3.98947 2.63065 6.31579 2.63065ZM13.6842 2.63065C16.0105 2.63065 17.8947 4.51486 17.8947 6.84118C17.8947 9.1675 16.0105 11.0517 13.6842 11.0517C11.3579 11.0517 9.47368 9.1675 9.47368 6.84118C9.47368 4.51486 11.3579 2.63065 13.6842 2.63065ZM13.6842 4.99907C12.6632 4.99907 11.8421 5.82013 11.8421 6.84118C11.8421 7.86223 12.6632 8.68329 13.6842 8.68329C14.7053 8.68329 15.5263 7.86223 15.5263 6.84118C15.5263 5.82013 14.7053 4.99907 13.6842 4.99907ZM4.21053 9.99907V11.0517H5.26316V9.99907H4.21053Z" fill="#545454"/>
</svg>
