<svg width="20" height="16" viewBox="0 0 20 16" fill="none" xmlns="http://www.w3.org/2000/svg">
<path d="M16.7797 3.4228H1.01695V1.21941C1.01695 1.08456 0.963378 0.955224 0.86802 0.859866C0.772663 0.764509 0.64333 0.710938 0.508475 0.710938C0.373619 0.710938 0.244286 0.764509 0.148929 0.859866C0.0535713 0.955224 0 1.08456 0 1.21941V14.7787C0 14.9136 0.0535713 15.0429 0.148929 15.1383C0.244286 15.2336 0.373619 15.2872 0.508475 15.2872C0.64333 15.2872 0.772663 15.2336 0.86802 15.1383C0.963378 15.0429 1.01695 14.9136 1.01695 14.7787V11.8974H18.9831V14.7787C18.9831 14.9136 19.0366 15.0429 19.132 15.1383C19.2273 15.2336 19.3567 15.2872 19.4915 15.2872C19.6264 15.2872 19.7557 15.2336 19.8511 15.1383C19.9464 15.0429 20 14.9136 20 14.7787V6.64314C20 5.78905 19.6607 4.96995 19.0568 4.36602C18.4529 3.76209 17.6337 3.4228 16.7797 3.4228ZM1.01695 4.43975H7.45763V10.8804H1.01695V4.43975ZM8.47458 10.8804V4.43975H16.7797C17.364 4.43975 17.9245 4.67189 18.3377 5.08511C18.7509 5.49833 18.9831 6.05877 18.9831 6.64314V10.8804H8.47458Z" fill="#545454"/>
</svg>
